<?xml version="1.0" standalone="no"?><svg xmlns:xlink="http://www.w3.org/1999/xlink" xmlns="http://www.w3.org/2000/svg" viewBox="0 0 1000 714.2857142857142" preserveAspectRatio="xMaxYMax slice"><g transform="scale(1.027749229188078)"><rect x="0" y="0" width="973" height="695" fill="#eaecfa"/><path d="M 0 0 A 69.5 69.5 0 0 1  69.5 69.5 L 0 0 A 69.5 69.5 0 0 0 69.5 69.5" fill="#858ac3"/><path d="M 69.5 0 A 69.5 69.5 0 0 1  139 69.5 L 69.5 0 A 69.5 69.5 0 0 0 139 69.5" fill="#2b4ee3"/><path d="M 139 0 A 69.5 69.5 0 0 1  208.5 69.5 L 139 0 A 69.5 69.5 0 0 0 208.5 69.5" fill="#999ece"/><rect x="208.5" y="0" width="69.5" height="69.5" fill="#eaecfa"/><path d="M 243.25 69.5 A 34.75 34.75 0 0 1  278 34.75 L 243.25 69.5 A 34.75 34.75 0 0 0 278 34.75" fill="#a8b5f2"/><rect x="347.5" y="0" width="69.5" height="69.5" fill="#eaecfa"/><path d="M 347.5 34.75 A 34.75 34.75 0 0 1  382.25 0 L 347.5 34.75 A 34.75 34.75 0 0 0 382.25 0" fill="#9ca1cf"/><path d="M 347.5 34.75 A 34.75 34.75 0 0 1  382.25 69.5 L 347.5 34.75 A 34.75 34.75 0 0 0 382.25 69.5" fill="#daddf1"/><path d="M 382.25 34.75 A 34.75 34.75 0 0 1  417 69.5 L 382.25 34.75 A 34.75 34.75 0 0 0 417 69.5" fill="#c8cce8"/><path d="M 556 69.5 A 69.5 69.5 0 0 1  625.5 0 L 556 69.5 A 69.5 69.5 0 0 0 625.5 0" fill="#797fbc"/><rect x="764.5" y="0" width="69.5" height="69.5" fill="#eaecfa"/><path d="M 764.5 69.5 A 34.75 34.75 0 0 1  799.25 34.75 L 764.5 69.5 A 34.75 34.75 0 0 0 799.25 34.75" fill="#2a4ee3"/><path d="M 799.25 69.5 A 34.75 34.75 0 0 1  834 34.75 L 799.25 69.5 A 34.75 34.75 0 0 0 834 34.75" fill="#2247e2"/><path d="M 834 0 A 69.5 69.5 0 0 1  903.5 69.5 L 834 0 A 69.5 69.5 0 0 0 903.5 69.5" fill="#d4d7ee"/><path d="M 903.5 0 A 69.5 69.5 0 0 1  973 69.5 L 903.5 0 A 69.5 69.5 0 0 0 973 69.5" fill="#e7e9f8"/><path d="M 0 69.5 A 69.5 69.5 0 0 1  69.5 139 L 0 69.5 A 69.5 69.5 0 0 0 69.5 139" fill="#c3c7e5"/><rect x="69.5" y="69.5" width="69.5" height="69.5" fill="#eaecfa"/><path d="M 69.5 69.5 A 34.75 34.75 0 0 1  104.25 104.25 L 69.5 69.5 A 34.75 34.75 0 0 0 104.25 104.25" fill="#7e84bf"/><path d="M 104.25 69.5 A 34.75 34.75 0 0 1  139 104.25 L 104.25 69.5 A 34.75 34.75 0 0 0 139 104.25" fill="#e3e7f9"/><path d="M 69.5 104.25 A 34.75 34.75 0 0 1  104.25 139 L 69.5 104.25 A 34.75 34.75 0 0 0 104.25 139" fill="#b9bddf"/><path d="M 104.25 104.25 A 34.75 34.75 0 0 1  139 139 L 104.25 104.25 A 34.75 34.75 0 0 0 139 139" fill="#e4e7f7"/><rect x="139" y="69.5" width="69.5" height="69.5" fill="#eaecfa"/><path d="M 139 139 A 34.75 34.75 0 0 1  173.75 104.25 L 139 139 A 34.75 34.75 0 0 0 173.75 104.25" fill="#254ae3"/><path d="M 278 69.5 A 69.5 69.5 0 0 1  347.5 139 L 278 69.5 A 69.5 69.5 0 0 0 347.5 139" fill="#c0c9f5"/><path d="M 417 139 A 69.5 69.5 0 0 1  486.5 69.5 L 417 139 A 69.5 69.5 0 0 0 486.5 69.5" fill="#868cc3"/><path d="M 486.5 69.5 A 69.5 69.5 0 0 1  556 139 L 486.5 69.5 A 69.5 69.5 0 0 0 556 139" fill="#d2d8f7"/><rect x="625.5" y="69.5" width="69.5" height="69.5" fill="#eaecfa"/><path d="M 625.5 69.5 A 34.75 34.75 0 0 1  660.25 104.25 L 625.5 69.5 A 34.75 34.75 0 0 0 660.25 104.25" fill="#8095ed"/><path d="M 660.25 104.25 A 34.75 34.75 0 0 1  695 69.5 L 660.25 104.25 A 34.75 34.75 0 0 0 695 69.5" fill="#bdc7f5"/><path d="M 625.5 104.25 A 34.75 34.75 0 0 1  660.25 139 L 625.5 104.25 A 34.75 34.75 0 0 0 660.25 139" fill="#b3bef3"/><path d="M 695 139 A 69.5 69.5 0 0 1  764.5 69.5 L 695 139 A 69.5 69.5 0 0 0 764.5 69.5" fill="#dadff8"/><path d="M 834 139 A 69.5 69.5 0 0 1  903.5 69.5 L 834 139 A 69.5 69.5 0 0 0 903.5 69.5" fill="#a4a8d4"/><path d="M 903.5 139 A 69.5 69.5 0 0 1  973 69.5 L 903.5 139 A 69.5 69.5 0 0 0 973 69.5" fill="#dee2f9"/><path d="M 0 139 A 69.5 69.5 0 0 1  69.5 208.5 L 0 139 A 69.5 69.5 0 0 0 69.5 208.5" fill="#dce0f8"/><rect x="69.5" y="139" width="69.5" height="69.5" fill="#eaecfa"/><path d="M 69.5 173.75 A 34.75 34.75 0 0 1  104.25 208.5 L 69.5 173.75 A 34.75 34.75 0 0 0 104.25 208.5" fill="#c9cce8"/><path d="M 104.25 208.5 A 34.75 34.75 0 0 1  139 173.75 L 104.25 208.5 A 34.75 34.75 0 0 0 139 173.75" fill="#8e93c7"/><path d="M 139 208.5 A 69.5 69.5 0 0 1  208.5 139 L 139 208.5 A 69.5 69.5 0 0 0 208.5 139" fill="#b6bade"/><rect x="208.5" y="139" width="69.5" height="69.5" fill="#eaecfa"/><path d="M 208.5 139 A 34.75 34.75 0 0 1  243.25 173.75 L 208.5 139 A 34.75 34.75 0 0 0 243.25 173.75" fill="#8b91c6"/><path d="M 208.5 173.75 A 34.75 34.75 0 0 1  243.25 208.5 L 208.5 173.75 A 34.75 34.75 0 0 0 243.25 208.5" fill="#dcdef2"/><path d="M 243.25 208.5 A 34.75 34.75 0 0 1  278 173.75 L 243.25 208.5 A 34.75 34.75 0 0 0 278 173.75" fill="#ced1ea"/><rect x="278" y="139" width="69.5" height="69.5" fill="#eaecfa"/><path d="M 278 139 A 34.75 34.75 0 0 1  312.75 173.75 L 278 139 A 34.75 34.75 0 0 0 312.75 173.75" fill="#8086c0"/><path d="M 312.75 173.75 A 34.75 34.75 0 0 1  347.5 208.5 L 312.75 173.75 A 34.75 34.75 0 0 0 347.5 208.5" fill="#c2cbf5"/><rect x="347.5" y="139" width="69.5" height="69.5" fill="#eaecfa"/><path d="M 347.5 173.75 A 34.75 34.75 0 0 1  382.25 139 L 347.5 173.75 A 34.75 34.75 0 0 0 382.25 139" fill="#868bc3"/><path d="M 382.25 173.75 A 34.75 34.75 0 0 1  417 139 L 382.25 173.75 A 34.75 34.75 0 0 0 417 139" fill="#a6b4f2"/><path d="M 347.5 173.75 A 34.75 34.75 0 0 1  382.25 208.5 L 347.5 173.75 A 34.75 34.75 0 0 0 382.25 208.5" fill="#a5a9d4"/><path d="M 382.25 208.5 A 34.75 34.75 0 0 1  417 173.75 L 382.25 208.5 A 34.75 34.75 0 0 0 417 173.75" fill="#bdc7f5"/><path d="M 417 208.5 A 69.5 69.5 0 0 1  486.5 139 L 417 208.5 A 69.5 69.5 0 0 0 486.5 139" fill="#cad2f6"/><rect x="486.5" y="139" width="69.5" height="69.5" fill="#eaecfa"/><path d="M 486.5 139 A 34.75 34.75 0 0 1  521.25 173.75 L 486.5 139 A 34.75 34.75 0 0 0 521.25 173.75" fill="#adbaf3"/><path d="M 486.5 173.75 A 34.75 34.75 0 0 1  521.25 208.5 L 486.5 173.75 A 34.75 34.75 0 0 0 521.25 208.5" fill="#4866e7"/><path d="M 556 208.5 A 69.5 69.5 0 0 1  625.5 139 L 556 208.5 A 69.5 69.5 0 0 0 625.5 139" fill="#3254e4"/><path d="M 625.5 208.5 A 69.5 69.5 0 0 1  695 139 L 625.5 208.5 A 69.5 69.5 0 0 0 695 139" fill="#b0b4da"/><path d="M 695 208.5 A 69.5 69.5 0 0 1  764.5 139 L 695 208.5 A 69.5 69.5 0 0 0 764.5 139" fill="#d3d9f7"/><path d="M 764.5 139 A 69.5 69.5 0 0 1  834 208.5 L 764.5 139 A 69.5 69.5 0 0 0 834 208.5" fill="#2b4fe3"/><rect x="0" y="208.5" width="69.5" height="69.5" fill="#eaecfa"/><path d="M 0 243.25 A 34.75 34.75 0 0 1  34.75 208.5 L 0 243.25 A 34.75 34.75 0 0 0 34.75 208.5" fill="#b4c0f4"/><path d="M 34.75 208.5 A 34.75 34.75 0 0 1  69.5 243.25 L 34.75 208.5 A 34.75 34.75 0 0 0 69.5 243.25" fill="#dde0f3"/><path d="M 34.75 278 A 34.75 34.75 0 0 1  69.5 243.25 L 34.75 278 A 34.75 34.75 0 0 0 69.5 243.25" fill="#b1b5db"/><path d="M 69.5 208.5 A 69.5 69.5 0 0 1  139 278 L 69.5 208.5 A 69.5 69.5 0 0 0 139 278" fill="#9ea3d0"/><rect x="208.5" y="208.5" width="69.5" height="69.5" fill="#eaecfa"/><path d="M 243.25 208.5 A 34.75 34.75 0 0 1  278 243.25 L 243.25 208.5 A 34.75 34.75 0 0 0 278 243.25" fill="#d4d7ee"/><path d="M 208.5 243.25 A 34.75 34.75 0 0 1  243.25 278 L 208.5 243.25 A 34.75 34.75 0 0 0 243.25 278" fill="#c4c7e5"/><path d="M 243.25 278 A 34.75 34.75 0 0 1  278 243.25 L 243.25 278 A 34.75 34.75 0 0 0 278 243.25" fill="#777dbb"/><path d="M 278 278 A 69.5 69.5 0 0 1  347.5 208.5 L 278 278 A 69.5 69.5 0 0 0 347.5 208.5" fill="#8288c1"/><path d="M 417 208.5 A 69.5 69.5 0 0 1  486.5 278 L 417 208.5 A 69.5 69.5 0 0 0 486.5 278" fill="#a7acd5"/><rect x="486.5" y="208.5" width="69.5" height="69.5" fill="#eaecfa"/><path d="M 486.5 208.5 A 34.75 34.75 0 0 1  521.25 243.25 L 486.5 208.5 A 34.75 34.75 0 0 0 521.25 243.25" fill="#acb0d8"/><path d="M 486.5 243.25 A 34.75 34.75 0 0 1  521.25 278 L 486.5 243.25 A 34.75 34.75 0 0 0 521.25 278" fill="#eaecfa"/><path d="M 521.25 278 A 34.75 34.75 0 0 1  556 243.25 L 521.25 278 A 34.75 34.75 0 0 0 556 243.25" fill="#afbbf3"/><path d="M 556 208.5 A 69.5 69.5 0 0 1  625.5 278 L 556 208.5 A 69.5 69.5 0 0 0 625.5 278" fill="#dbddf2"/><path d="M 695 278 A 69.5 69.5 0 0 1  764.5 208.5 L 695 278 A 69.5 69.5 0 0 0 764.5 208.5" fill="#e8eaf9"/><rect x="834" y="208.5" width="69.5" height="69.5" fill="#eaecfa"/><path d="M 834 208.5 A 34.75 34.75 0 0 1  868.75 243.25 L 834 208.5 A 34.75 34.75 0 0 0 868.75 243.25" fill="#e4e6f6"/><path d="M 868.75 208.5 A 34.75 34.75 0 0 1  903.5 243.25 L 868.75 208.5 A 34.75 34.75 0 0 0 903.5 243.25" fill="#3658e5"/><path d="M 834 278 A 34.75 34.75 0 0 1  868.75 243.25 L 834 278 A 34.75 34.75 0 0 0 868.75 243.25" fill="#d8ddf8"/><rect x="903.5" y="208.5" width="69.5" height="69.5" fill="#eaecfa"/><path d="M 938.25 243.25 A 34.75 34.75 0 0 1  973 208.5 L 938.25 243.25 A 34.75 34.75 0 0 0 973 208.5" fill="#787ebb"/><path d="M 903.5 278 A 34.75 34.75 0 0 1  938.25 243.25 L 903.5 278 A 34.75 34.75 0 0 0 938.25 243.25" fill="#5370e8"/><path d="M 938.25 278 A 34.75 34.75 0 0 1  973 243.25 L 938.25 278 A 34.75 34.75 0 0 0 973 243.25" fill="#848ac2"/><path d="M 0 278 A 69.5 69.5 0 0 1  69.5 347.5 L 0 278 A 69.5 69.5 0 0 0 69.5 347.5" fill="#9ba0cf"/><path d="M 69.5 347.5 A 69.5 69.5 0 0 1  139 278 L 69.5 347.5 A 69.5 69.5 0 0 0 139 278" fill="#a5aad4"/><path d="M 139 278 A 69.5 69.5 0 0 1  208.5 347.5 L 139 278 A 69.5 69.5 0 0 0 208.5 347.5" fill="#c8d0f6"/><path d="M 208.5 347.5 A 69.5 69.5 0 0 1  278 278 L 208.5 347.5 A 69.5 69.5 0 0 0 278 278" fill="#aeb2d9"/><path d="M 347.5 278 A 69.5 69.5 0 0 1  417 347.5 L 347.5 278 A 69.5 69.5 0 0 0 417 347.5" fill="#e5e7f7"/><path d="M 417 347.5 A 69.5 69.5 0 0 1  486.5 278 L 417 347.5 A 69.5 69.5 0 0 0 486.5 278" fill="#dfe1f4"/><rect x="486.5" y="278" width="69.5" height="69.5" fill="#eaecfa"/><path d="M 486.5 347.5 A 34.75 34.75 0 0 1  521.25 312.75 L 486.5 347.5 A 34.75 34.75 0 0 0 521.25 312.75" fill="#5672e8"/><path d="M 521.25 347.5 A 34.75 34.75 0 0 1  556 312.75 L 521.25 347.5 A 34.75 34.75 0 0 0 556 312.75" fill="#5d78e9"/><path d="M 695 347.5 A 69.5 69.5 0 0 1  764.5 278 L 695 347.5 A 69.5 69.5 0 0 0 764.5 278" fill="#b4bff4"/><path d="M 834 278 A 69.5 69.5 0 0 1  903.5 347.5 L 834 278 A 69.5 69.5 0 0 0 903.5 347.5" fill="#9297ca"/><path d="M 903.5 347.5 A 69.5 69.5 0 0 1  973 278 L 903.5 347.5 A 69.5 69.5 0 0 0 973 278" fill="#7c82be"/><path d="M 0 417 A 69.5 69.5 0 0 1  69.5 347.5 L 0 417 A 69.5 69.5 0 0 0 69.5 347.5" fill="#a3b1f2"/><path d="M 69.5 417 A 69.5 69.5 0 0 1  139 347.5 L 69.5 417 A 69.5 69.5 0 0 0 139 347.5" fill="#8086c0"/><rect x="139" y="347.5" width="69.5" height="69.5" fill="#eaecfa"/><path d="M 139 382.25 A 34.75 34.75 0 0 1  173.75 347.5 L 139 382.25 A 34.75 34.75 0 0 0 173.75 347.5" fill="#acb0d8"/><path d="M 139 382.25 A 34.75 34.75 0 0 1  173.75 417 L 139 382.25 A 34.75 34.75 0 0 0 173.75 417" fill="#bbbee0"/><path d="M 173.75 417 A 34.75 34.75 0 0 1  208.5 382.25 L 173.75 417 A 34.75 34.75 0 0 0 208.5 382.25" fill="#7f94ed"/><path d="M 486.5 417 A 69.5 69.5 0 0 1  556 347.5 L 486.5 417 A 69.5 69.5 0 0 0 556 347.5" fill="#3d5ee5"/><path d="M 625.5 347.5 A 69.5 69.5 0 0 1  695 417 L 625.5 347.5 A 69.5 69.5 0 0 0 695 417" fill="#8d92c7"/><path d="M 695 417 A 69.5 69.5 0 0 1  764.5 347.5 L 695 417 A 69.5 69.5 0 0 0 764.5 347.5" fill="#6881ea"/><path d="M 764.5 347.5 A 69.5 69.5 0 0 1  834 417 L 764.5 347.5 A 69.5 69.5 0 0 0 834 417" fill="#8c9fef"/><rect x="834" y="347.5" width="69.5" height="69.5" fill="#eaecfa"/><path d="M 834 347.5 A 34.75 34.75 0 0 1  868.75 382.25 L 834 347.5 A 34.75 34.75 0 0 0 868.75 382.25" fill="#9196c9"/><path d="M 868.75 382.25 A 34.75 34.75 0 0 1  903.5 417 L 868.75 382.25 A 34.75 34.75 0 0 0 903.5 417" fill="#7a90ed"/><rect x="903.5" y="347.5" width="69.5" height="69.5" fill="#eaecfa"/><path d="M 903.5 347.5 A 34.75 34.75 0 0 1  938.25 382.25 L 903.5 347.5 A 34.75 34.75 0 0 0 938.25 382.25" fill="#c9cce8"/><path d="M 903.5 417 A 34.75 34.75 0 0 1  938.25 382.25 L 903.5 417 A 34.75 34.75 0 0 0 938.25 382.25" fill="#acb0d8"/><path d="M 938.25 417 A 34.75 34.75 0 0 1  973 382.25 L 938.25 417 A 34.75 34.75 0 0 0 973 382.25" fill="#b1b5db"/><path d="M 0 417 A 69.5 69.5 0 0 1  69.5 486.5 L 0 417 A 69.5 69.5 0 0 0 69.5 486.5" fill="#7c82be"/><path d="M 69.5 417 A 69.5 69.5 0 0 1  139 486.5 L 69.5 417 A 69.5 69.5 0 0 0 139 486.5" fill="#667fea"/><path d="M 278 486.5 A 69.5 69.5 0 0 1  347.5 417 L 278 486.5 A 69.5 69.5 0 0 0 347.5 417" fill="#7c91ed"/><rect x="347.5" y="417" width="69.5" height="69.5" fill="#eaecfa"/><path d="M 347.5 417 A 34.75 34.75 0 0 1  382.25 451.75 L 347.5 417 A 34.75 34.75 0 0 0 382.25 451.75" fill="#8a9def"/><path d="M 382.25 417 A 34.75 34.75 0 0 1  417 451.75 L 382.25 417 A 34.75 34.75 0 0 0 417 451.75" fill="#b0bcf3"/><path d="M 347.5 486.5 A 34.75 34.75 0 0 1  382.25 451.75 L 347.5 486.5 A 34.75 34.75 0 0 0 382.25 451.75" fill="#a8b5f2"/><path d="M 382.25 451.75 A 34.75 34.75 0 0 1  417 486.5 L 382.25 451.75 A 34.75 34.75 0 0 0 417 486.5" fill="#898ec5"/><path d="M 417 486.5 A 69.5 69.5 0 0 1  486.5 417 L 417 486.5 A 69.5 69.5 0 0 0 486.5 417" fill="#abafd7"/><path d="M 486.5 417 A 69.5 69.5 0 0 1  556 486.5 L 486.5 417 A 69.5 69.5 0 0 0 556 486.5" fill="#3c5de5"/><path d="M 695 486.5 A 69.5 69.5 0 0 1  764.5 417 L 695 486.5 A 69.5 69.5 0 0 0 764.5 417" fill="#cacde8"/><path d="M 764.5 417 A 69.5 69.5 0 0 1  834 486.5 L 764.5 417 A 69.5 69.5 0 0 0 834 486.5" fill="#b1b5db"/><path d="M 903.5 486.5 A 69.5 69.5 0 0 1  973 417 L 903.5 486.5 A 69.5 69.5 0 0 0 973 417" fill="#8397ee"/><path d="M 69.5 556 A 69.5 69.5 0 0 1  139 486.5 L 69.5 556 A 69.5 69.5 0 0 0 139 486.5" fill="#858ac2"/><rect x="139" y="486.5" width="69.5" height="69.5" fill="#eaecfa"/><path d="M 139 486.5 A 34.75 34.75 0 0 1  173.75 521.25 L 139 486.5 A 34.75 34.75 0 0 0 173.75 521.25" fill="#d0d3ec"/><path d="M 173.75 486.5 A 34.75 34.75 0 0 1  208.5 521.25 L 173.75 486.5 A 34.75 34.75 0 0 0 208.5 521.25" fill="#a4a8d4"/><path d="M 139 556 A 34.75 34.75 0 0 1  173.75 521.25 L 139 556 A 34.75 34.75 0 0 0 173.75 521.25" fill="#e5e7f7"/><path d="M 173.75 556 A 34.75 34.75 0 0 1  208.5 521.25 L 173.75 556 A 34.75 34.75 0 0 0 208.5 521.25" fill="#9ba0cf"/><path d="M 208.5 556 A 69.5 69.5 0 0 1  278 486.5 L 208.5 556 A 69.5 69.5 0 0 0 278 486.5" fill="#969acc"/><path d="M 347.5 486.5 A 69.5 69.5 0 0 1  417 556 L 347.5 486.5 A 69.5 69.5 0 0 0 417 556" fill="#c1caf5"/><rect x="417" y="486.5" width="69.5" height="69.5" fill="#eaecfa"/><path d="M 417 486.5 A 34.75 34.75 0 0 1  451.75 521.25 L 417 486.5 A 34.75 34.75 0 0 0 451.75 521.25" fill="#b2bef3"/><path d="M 451.75 521.25 A 34.75 34.75 0 0 1  486.5 486.5 L 451.75 521.25 A 34.75 34.75 0 0 0 486.5 486.5" fill="#c3ccf5"/><path d="M 451.75 556 A 34.75 34.75 0 0 1  486.5 521.25 L 451.75 556 A 34.75 34.75 0 0 0 486.5 521.25" fill="#888ec5"/><path d="M 486.5 556 A 69.5 69.5 0 0 1  556 486.5 L 486.5 556 A 69.5 69.5 0 0 0 556 486.5" fill="#d7dcf8"/><path d="M 695 556 A 69.5 69.5 0 0 1  764.5 486.5 L 695 556 A 69.5 69.5 0 0 0 764.5 486.5" fill="#9da2d0"/><path d="M 834 556 A 69.5 69.5 0 0 1  903.5 486.5 L 834 556 A 69.5 69.5 0 0 0 903.5 486.5" fill="#898fc5"/><path d="M 903.5 486.5 A 69.5 69.5 0 0 1  973 556 L 903.5 486.5 A 69.5 69.5 0 0 0 973 556" fill="#294de3"/><path d="M 0 556 A 69.5 69.5 0 0 1  69.5 625.5 L 0 556 A 69.5 69.5 0 0 0 69.5 625.5" fill="#c0c3e3"/><path d="M 139 556 A 69.5 69.5 0 0 1  208.5 625.5 L 139 556 A 69.5 69.5 0 0 0 208.5 625.5" fill="#e8eaf9"/><path d="M 208.5 625.5 A 69.5 69.5 0 0 1  278 556 L 208.5 625.5 A 69.5 69.5 0 0 0 278 556" fill="#5c77e9"/><path d="M 278 625.5 A 69.5 69.5 0 0 1  347.5 556 L 278 625.5 A 69.5 69.5 0 0 0 347.5 556" fill="#cbcee9"/><rect x="347.5" y="556" width="69.5" height="69.5" fill="#eaecfa"/><path d="M 347.5 590.75 A 34.75 34.75 0 0 1  382.25 556 L 347.5 590.75 A 34.75 34.75 0 0 0 382.25 556" fill="#3e5ee6"/><path d="M 382.25 590.75 A 34.75 34.75 0 0 1  417 556 L 382.25 590.75 A 34.75 34.75 0 0 0 417 556" fill="#aeb2d9"/><path d="M 347.5 625.5 A 34.75 34.75 0 0 1  382.25 590.75 L 347.5 625.5 A 34.75 34.75 0 0 0 382.25 590.75" fill="#cdd0ea"/><path d="M 382.25 590.75 A 34.75 34.75 0 0 1  417 625.5 L 382.25 590.75 A 34.75 34.75 0 0 0 417 625.5" fill="#abb8f2"/><path d="M 417 625.5 A 69.5 69.5 0 0 1  486.5 556 L 417 625.5 A 69.5 69.5 0 0 0 486.5 556" fill="#9da2d0"/><rect x="486.5" y="556" width="69.5" height="69.5" fill="#eaecfa"/><path d="M 521.25 590.75 A 34.75 34.75 0 0 1  556 556 L 521.25 590.75 A 34.75 34.75 0 0 0 556 556" fill="#a8acd6"/><path d="M 486.5 590.75 A 34.75 34.75 0 0 1  521.25 625.5 L 486.5 590.75 A 34.75 34.75 0 0 0 521.25 625.5" fill="#9499cb"/><path d="M 521.25 590.75 A 34.75 34.75 0 0 1  556 625.5 L 521.25 590.75 A 34.75 34.75 0 0 0 556 625.5" fill="#959acb"/><path d="M 556 556 A 69.5 69.5 0 0 1  625.5 625.5 L 556 556 A 69.5 69.5 0 0 0 625.5 625.5" fill="#c2cbf5"/><rect x="625.5" y="556" width="69.5" height="69.5" fill="#eaecfa"/><path d="M 625.5 590.75 A 34.75 34.75 0 0 1  660.25 556 L 625.5 590.75 A 34.75 34.75 0 0 0 660.25 556" fill="#768cec"/><path d="M 660.25 590.75 A 34.75 34.75 0 0 1  695 625.5 L 660.25 590.75 A 34.75 34.75 0 0 0 695 625.5" fill="#e2e4f6"/><path d="M 695 625.5 A 69.5 69.5 0 0 1  764.5 556 L 695 625.5 A 69.5 69.5 0 0 0 764.5 556" fill="#4161e6"/><path d="M 764.5 556 A 69.5 69.5 0 0 1  834 625.5 L 764.5 556 A 69.5 69.5 0 0 0 834 625.5" fill="#9fa4d1"/><path d="M 834 556 A 69.5 69.5 0 0 1  903.5 625.5 L 834 556 A 69.5 69.5 0 0 0 903.5 625.5" fill="#7f85bf"/><path d="M 903.5 556 A 69.5 69.5 0 0 1  973 625.5 L 903.5 556 A 69.5 69.5 0 0 0 973 625.5" fill="#889cee"/><path d="M 0 695 A 69.5 69.5 0 0 1  69.5 625.5 L 0 695 A 69.5 69.5 0 0 0 69.5 625.5" fill="#b2b6db"/><path d="M 139 625.5 A 69.5 69.5 0 0 1  208.5 695 L 139 625.5 A 69.5 69.5 0 0 0 208.5 695" fill="#9297ca"/><path d="M 208.5 695 A 69.5 69.5 0 0 1  278 625.5 L 208.5 695 A 69.5 69.5 0 0 0 278 625.5" fill="#7b81bd"/><rect x="278" y="625.5" width="69.5" height="69.5" fill="#eaecfa"/><path d="M 278 660.25 A 34.75 34.75 0 0 1  312.75 625.5 L 278 660.25 A 34.75 34.75 0 0 0 312.75 625.5" fill="#2a4ee3"/><path d="M 312.75 625.5 A 34.75 34.75 0 0 1  347.5 660.25 L 312.75 625.5 A 34.75 34.75 0 0 0 347.5 660.25" fill="#7d83be"/><path d="M 278 660.25 A 34.75 34.75 0 0 1  312.75 695 L 278 660.25 A 34.75 34.75 0 0 0 312.75 695" fill="#7e84bf"/><path d="M 312.75 695 A 34.75 34.75 0 0 1  347.5 660.25 L 312.75 695 A 34.75 34.75 0 0 0 347.5 660.25" fill="#8c91c6"/><path d="M 347.5 625.5 A 69.5 69.5 0 0 1  417 695 L 347.5 625.5 A 69.5 69.5 0 0 0 417 695" fill="#a7b5f2"/><rect x="417" y="625.5" width="69.5" height="69.5" fill="#eaecfa"/><path d="M 417 660.25 A 34.75 34.75 0 0 1  451.75 625.5 L 417 660.25 A 34.75 34.75 0 0 0 451.75 625.5" fill="#5672e8"/><path d="M 451.75 625.5 A 34.75 34.75 0 0 1  486.5 660.25 L 451.75 625.5 A 34.75 34.75 0 0 0 486.5 660.25" fill="#8a8fc5"/><path d="M 417 695 A 34.75 34.75 0 0 1  451.75 660.25 L 417 695 A 34.75 34.75 0 0 0 451.75 660.25" fill="#8a9def"/><path d="M 486.5 625.5 A 69.5 69.5 0 0 1  556 695 L 486.5 625.5 A 69.5 69.5 0 0 0 556 695" fill="#b7c2f4"/><path d="M 556 695 A 69.5 69.5 0 0 1  625.5 625.5 L 556 695 A 69.5 69.5 0 0 0 625.5 625.5" fill="#889bee"/><path d="M 625.5 695 A 69.5 69.5 0 0 1  695 625.5 L 625.5 695 A 69.5 69.5 0 0 0 695 625.5" fill="#2e51e4"/><path d="M 764.5 695 A 69.5 69.5 0 0 1  834 625.5 L 764.5 695 A 69.5 69.5 0 0 0 834 625.5" fill="#c1c4e3"/><path d="M 834 625.5 A 69.5 69.5 0 0 1  903.5 695 L 834 625.5 A 69.5 69.5 0 0 0 903.5 695" fill="#4766e7"/><path d="M 903.5 625.5 A 69.5 69.5 0 0 1  973 695 L 903.5 625.5 A 69.5 69.5 0 0 0 973 695" fill="#8ea0ef"/></g></svg>